<svg xmlns="http://www.w3.org/2000/svg" width="167" height="40" fill="none"><g fill="#fff" clip-path="url(#a)"><path d="m48.525 20-9.667 5-19.333-10L38.858 5v10l9.667 5ZM38.858 35l-9.667 5-29-15 19.334-10v10l19.333 10ZM38.858 5l9.667-5 9.666 5-9.666 5-9.667-5Z"/></g><path fill="#fff" d="M70.635 32.5h-4.878V7.917h17.599v4.058H70.635v6.556h9.833v3.98h-9.833V32.5Zm16.01-24.583h4.683V32.5h-4.683V7.917Zm12.71 15.998c0 3.24 1.482 5.502 4.331 5.502 2.887 0 4.37-2.263 4.37-5.502 0-3.277-1.483-5.54-4.37-5.54-2.849 0-4.332 2.263-4.332 5.54Zm13.423 0c0 5.346-3.746 9.053-9.092 9.053-5.307 0-9.053-3.707-9.053-9.053 0-5.345 3.746-9.091 9.053-9.091 5.346 0 9.092 3.746 9.092 9.091Zm7.163 0c0 3.24 1.483 5.502 4.331 5.502 2.888 0 4.371-2.263 4.371-5.502 0-3.277-1.483-5.54-4.371-5.54-2.848 0-4.331 2.263-4.331 5.54Zm13.423 0c0 5.346-3.746 9.053-9.092 9.053-5.307 0-9.053-3.707-9.053-9.053 0-5.345 3.746-9.091 9.053-9.091 5.346 0 9.092 3.746 9.092 9.091Zm15.244-8.39-.352 4.371c-.897-.507-1.677-.741-2.809-.741-2.419 0-4.058 1.717-4.058 4.838V32.5h-4.683V15.292h4.683v3.278c.624-1.951 2.419-3.747 4.799-3.747 1.054 0 1.912.274 2.42.703Zm1.263 11.278 4.058-.156c.273 2.068 1.834 3.122 4.214 3.122 1.717 0 3.122-.586 3.122-1.834 0-1.171-.78-1.678-2.497-1.951l-2.732-.469c-3.668-.585-5.697-1.95-5.697-5.15 0-3.278 2.771-5.541 7.141-5.541 4.761 0 7.609 2.146 7.921 5.97l-3.863.156c-.312-1.951-1.639-2.927-4.097-2.927-1.678 0-2.77.742-2.77 1.912 0 .937.624 1.483 1.873 1.678l3.277.546c3.629.586 5.775 2.108 5.775 5.346 0 3.512-3.043 5.463-7.492 5.463-4.487 0-7.921-1.95-8.233-6.165Z"/><defs><clipPath id="a"><path fill="#fff" d="M.191 0h58v40h-58z"/></clipPath></defs></svg>